<svg width="253" height="221" viewBox="0 0 253 221" fill="none" xmlns="http://www.w3.org/2000/svg">
<rect y="85" width="157" height="50" rx="5" fill="white"/>
<path fill-rule="evenodd" clip-rule="evenodd" d="M183.881 198.119C157.231 178.045 140 146.135 140 110.201C140 72.5037 158.963 39.2357 187.869 19.4149C156.833 37.6579 136 71.396 136 110C136 146.926 155.061 179.4 183.881 198.119Z" fill="#0057FF"/>
<g clip-path="url(#clip0_121_3)">
<path d="M8.30649 132.385C7.46996 133.222 7 134.356 7 135.539C7.00003 136.722 7.47002 137.857 8.30656 138.693C9.14309 139.53 10.2776 140 11.4606 140L8.30649 132.385ZM8.30649 132.385C9.14303 131.549 10.2776 131.079 11.4606 131.079M8.30649 132.385L11.4606 131.079M11.4606 131.079C12.0464 131.079 12.6265 131.194 13.1677 131.418M11.4606 131.079L13.1677 131.418M13.1677 131.418C13.7089 131.642 14.2007 131.971 14.6149 132.385M13.1677 131.418L14.6149 132.385M14.6149 132.385C15.0291 132.799 15.3577 133.291 15.5819 133.832M14.6149 132.385L15.5819 133.832M15.5819 133.832C15.8061 134.373 15.9215 134.953 15.9215 135.539M15.5819 133.832L15.9215 135.539M15.9215 135.539C15.9214 136.722 15.4514 137.857 14.6148 138.693M15.9215 135.539L14.6148 138.693M14.6148 138.693C13.7783 139.53 12.6437 140 11.4607 140L14.6148 138.693ZM26.9751 131.078H27.7777L27.9514 130.295L36.854 90.1377L37.1236 88.9213H35.8777H11.4606C10.2776 88.9213 9.14303 88.4513 8.30649 87.6148C7.46996 86.7783 7 85.6437 7 84.4606C7 83.2776 7.46996 82.143 8.30649 81.3065C9.14303 80.47 10.2776 80 11.4606 80H47.2493C48.4323 80 49.5669 80.47 50.4034 81.3065C51.2399 82.143 51.7099 83.2776 51.7099 84.4606C51.7099 85.0465 51.5946 85.6266 51.3704 86.1678C51.1463 86.709 50.8177 87.2007 50.4035 87.615C49.9892 88.0292 49.4975 88.3578 48.9563 88.582C48.4151 88.8062 47.8351 88.9216 47.2493 88.9216H47.0643H46.2617L46.088 89.7051L37.1853 129.862L36.9156 131.079H38.1616H62.5392C63.125 131.079 63.7051 131.194 64.2463 131.418C64.7874 131.642 65.2792 131.971 65.6934 132.385C66.1077 132.799 66.4363 133.291 66.6604 133.832C66.8846 134.373 67 134.953 67 135.539C67 136.722 66.53 137.857 65.6934 138.693C64.8569 139.53 63.7223 140 62.5392 140H26.7507C25.5676 140 24.433 139.53 23.5964 138.693C22.7598 137.857 22.2899 136.722 22.2899 135.539C22.2899 134.953 22.4052 134.373 22.6294 133.832C22.8536 133.291 23.1822 132.799 23.5964 132.385C24.0106 131.971 24.5024 131.642 25.0436 131.418C25.5849 131.194 26.1649 131.078 26.7507 131.078H26.9751ZM57.9105 84.4606C57.9105 83.2776 58.3805 82.1431 59.217 81.3065C60.0535 80.47 61.188 80 62.3711 80C62.9569 80 63.537 80.1153 64.0782 80.3395C64.6194 80.5636 65.1112 80.8922 65.5255 81.3064C65.9397 81.7206 66.2683 82.2123 66.4925 82.7536C66.7167 83.2948 66.8321 83.8749 66.8321 84.4606C66.8321 85.0464 66.7167 85.6265 66.4925 86.1678C66.2683 86.709 65.9398 87.2008 65.5256 87.615C65.1114 88.0292 64.6196 88.3578 64.0784 88.582C63.5372 88.8062 62.9571 88.9216 62.3713 88.9216C61.7855 88.9216 61.2054 88.8062 60.6642 88.582C60.123 88.3578 59.6312 88.0292 59.217 87.615C58.8028 87.2008 58.4742 86.7091 58.25 86.1678C58.0259 85.6266 57.9105 85.0465 57.9105 84.4606Z" stroke="black" stroke-width="2"/>
</g>
<path d="M169.562 103.152C171 105.043 172.711 106.82 174.695 108.484C176.242 109.789 177.773 110.855 179.289 111.684C179.883 112.012 180.18 112.277 180.18 112.48C180.18 112.621 180.047 112.73 179.781 112.809C179.102 113.004 178.484 113.102 177.93 113.102C177.633 113.102 177.383 113.02 177.18 112.855C175.234 111.316 173.344 109.539 171.508 107.523C170.5 106.422 169.637 105.363 168.918 104.348C166.637 108.316 163.633 111.449 159.906 113.746C159.586 113.941 159.344 114.039 159.18 114.039C158.992 114.039 158.84 113.957 158.723 113.793C158.629 113.652 158.582 113.512 158.582 113.371C158.582 113.199 158.664 113.043 158.828 112.902C158.867 112.863 159.152 112.652 159.684 112.27C162.02 110.574 164.09 108.422 165.895 105.812C166.707 104.633 167.398 103.445 167.969 102.25C168.195 101.773 168.5 101.535 168.883 101.535C169.047 101.535 169.199 101.57 169.34 101.641C169.629 101.789 169.773 102.035 169.773 102.379C169.773 102.605 169.703 102.863 169.562 103.152ZM169.82 109.598V121.738C169.82 122.363 169.508 122.676 168.883 122.676C168.258 122.676 167.945 122.363 167.945 121.738V109.598C167.945 108.973 168.258 108.66 168.883 108.66C169.508 108.66 169.82 108.973 169.82 109.598ZM193.223 109.316C194.184 110.957 195.395 112.586 196.855 114.203C198.738 116.281 200.734 117.992 202.844 119.336C203.578 119.805 203.945 120.125 203.945 120.297C203.945 120.422 203.789 120.527 203.477 120.613C202.898 120.77 202.324 120.848 201.754 120.848C201.191 120.848 200.781 120.738 200.523 120.52C199.234 119.426 197.723 117.816 195.988 115.691C194.879 114.332 193.727 112.754 192.531 110.957C190.758 114.762 188.223 117.848 184.926 120.215C184.254 120.699 183.805 120.941 183.578 120.941C183.375 120.941 183.203 120.855 183.062 120.684C182.961 120.559 182.91 120.43 182.91 120.297C182.91 120.078 183.059 119.855 183.355 119.629C184.762 118.559 185.871 117.582 186.684 116.699C190.012 113.043 192.039 108.691 192.766 103.645C192.867 102.926 193.18 102.566 193.703 102.566C193.891 102.566 194.078 102.617 194.266 102.719C194.578 102.883 194.734 103.152 194.734 103.527C194.734 104.059 194.469 105.262 193.938 107.137C193.781 107.699 193.543 108.426 193.223 109.316ZM219.367 106.211V104.746L215.512 105.086C215.457 105.094 215.41 105.098 215.371 105.098C215.043 105.113 214.816 104.965 214.691 104.652C214.652 104.543 214.633 104.434 214.633 104.324C214.633 103.918 214.875 103.691 215.359 103.645L219.367 103.293V101.781C219.367 101.641 219.402 101.516 219.473 101.406C219.621 101.172 219.859 101.055 220.188 101.055C220.5 101.055 220.73 101.16 220.879 101.371C220.965 101.488 221.008 101.625 221.008 101.781V103.152L224.148 102.883L224.254 102.871C224.566 102.848 224.793 102.957 224.934 103.199C224.988 103.293 225.016 103.406 225.016 103.539C225.016 104.016 224.766 104.277 224.266 104.324L221.008 104.605V106.07L224.465 105.766C224.512 105.758 224.582 105.754 224.676 105.754C225.559 105.754 226 106.219 226 107.148C226 107.242 226 107.309 226 107.348L225.66 112.645C225.621 113.129 225.355 113.371 224.863 113.371C224.48 113.371 224.23 113.227 224.113 112.938C224.082 112.852 224.07 112.754 224.078 112.645V112.504L216.777 113.078V113.148C216.793 113.352 216.738 113.512 216.613 113.629C216.449 113.793 216.242 113.875 215.992 113.875C215.5 113.875 215.234 113.633 215.195 113.148L214.668 106.844C214.652 106.617 214.723 106.434 214.879 106.293C215.051 106.145 215.258 106.07 215.5 106.07C215.828 106.07 216.066 106.211 216.215 106.492L219.367 106.211ZM221.008 108.766L224.277 108.473L224.312 107.699C224.297 107.316 224.137 107.125 223.832 107.125C223.793 107.125 223.762 107.125 223.738 107.125L221.008 107.359V108.766ZM219.367 108.906V107.5L216.367 107.746L216.473 109.152L219.367 108.906ZM221.008 109.996V111.473L224.148 111.227L224.219 109.738L221.008 109.996ZM219.367 110.125L216.566 110.348L216.684 111.812L219.367 111.602V110.125ZM223.855 116.207V120.953C223.855 122.133 223.414 122.723 222.531 122.723C222.102 122.723 221.438 122.562 220.539 122.242C220.102 122.078 219.754 121.93 219.496 121.797C219.215 121.641 219.074 121.449 219.074 121.223C219.074 120.824 219.273 120.625 219.672 120.625C219.797 120.625 219.949 120.648 220.129 120.695C220.785 120.883 221.324 120.977 221.746 120.977C222.035 120.977 222.18 120.77 222.18 120.355V116.301L214.328 116.781C214.281 116.781 214.242 116.781 214.211 116.781C213.719 116.781 213.473 116.543 213.473 116.066C213.473 115.582 213.727 115.324 214.234 115.293L222.18 114.801V113.852C222.18 113.367 222.449 113.125 222.988 113.125C223.566 113.125 223.855 113.367 223.855 113.852V114.695L227.043 114.496C227.621 114.457 227.91 114.691 227.91 115.199C227.91 115.707 227.637 115.977 227.09 116.008L223.855 116.207ZM210.895 109.258V121.34C210.895 121.551 210.82 121.727 210.672 121.867C210.516 122.023 210.301 122.102 210.027 122.102C209.684 122.102 209.434 121.98 209.277 121.738C209.207 121.621 209.172 121.488 209.172 121.34V109.434L206.77 109.691C206.73 109.699 206.668 109.703 206.582 109.703C206.027 109.703 205.75 109.422 205.75 108.859C205.75 108.398 206.012 108.141 206.535 108.086L209.172 107.793V102.473C209.172 102.223 209.262 102.023 209.441 101.875C209.613 101.742 209.809 101.676 210.027 101.676C210.324 101.676 210.559 101.781 210.73 101.992C210.84 102.125 210.895 102.285 210.895 102.473V107.605L213.098 107.371C213.152 107.363 213.207 107.359 213.262 107.359C213.793 107.359 214.059 107.613 214.059 108.121C214.059 108.652 213.797 108.945 213.273 109L210.895 109.258ZM216.52 116.91C216.855 116.91 217.41 117.266 218.184 117.977C218.965 118.688 219.355 119.211 219.355 119.547C219.355 119.789 219.258 119.992 219.062 120.156C218.898 120.297 218.707 120.367 218.488 120.367C218.191 120.367 217.922 120.191 217.68 119.84C217.328 119.34 216.855 118.742 216.262 118.047C216.066 117.82 215.969 117.617 215.969 117.438C215.969 117.312 216.02 117.195 216.121 117.086C216.223 116.969 216.355 116.91 216.52 116.91ZM224.992 101.16C225.156 101.16 225.355 101.25 225.59 101.43C226.91 102.438 227.57 103.211 227.57 103.75C227.57 103.961 227.488 104.141 227.324 104.289C227.184 104.43 227.008 104.5 226.797 104.5C226.477 104.5 226.191 104.305 225.941 103.914C225.605 103.367 225.184 102.797 224.676 102.203C224.527 102.031 224.453 101.867 224.453 101.711C224.453 101.57 224.504 101.449 224.605 101.348C224.715 101.223 224.844 101.16 224.992 101.16ZM239.652 112.375C238.793 111.68 237.949 110.902 237.121 110.043C236.09 111.113 235.016 112.039 233.898 112.82C233.602 113.031 233.348 113.137 233.137 113.137C232.965 113.137 232.824 113.074 232.715 112.949C232.598 112.801 232.539 112.652 232.539 112.504C232.539 112.355 232.602 112.215 232.727 112.082C232.766 112.043 232.934 111.902 233.23 111.66C234.613 110.512 235.832 109.199 236.887 107.723C237.137 107.371 237.371 107.008 237.59 106.633C237.801 106.258 238.078 106.07 238.422 106.07C238.602 106.07 238.77 106.121 238.926 106.223C239.176 106.387 239.301 106.609 239.301 106.891C239.301 106.977 239.289 107.07 239.266 107.172L244.305 106.773C244.359 106.766 244.422 106.762 244.492 106.762C245.398 106.762 245.852 107.086 245.852 107.734C245.852 108.531 244.578 110.07 242.031 112.352C242.734 112.836 243.754 113.387 245.09 114.004C246.824 114.801 248.758 115.543 250.891 116.23C251.367 116.387 251.605 116.535 251.605 116.676C251.605 116.824 251.418 116.957 251.043 117.074C250.215 117.332 249.609 117.461 249.227 117.461C248.844 117.461 247.957 117.125 246.566 116.453C246.59 116.57 246.602 116.641 246.602 116.664V116.734C246.602 116.859 246.59 116.977 246.566 117.086L245.887 120.109H245.945H245.98C246.082 120.102 246.188 120.129 246.297 120.191C246.523 120.309 246.637 120.508 246.637 120.789C246.637 121.242 246.355 121.48 245.793 121.504L238 121.879C237.961 122.355 237.668 122.594 237.121 122.594C236.66 122.594 236.391 122.32 236.312 121.773L235.621 116.828C233.762 117.758 232.598 118.223 232.129 118.223C231.723 118.223 231.52 118.016 231.52 117.602C231.52 117.414 231.602 117.254 231.766 117.121C231.828 117.074 232.086 116.957 232.539 116.77C234.898 115.777 237.27 114.312 239.652 112.375ZM240.918 113.312L240.812 113.395C239.836 114.207 238.629 115.059 237.191 115.949L237.238 116.008L244.621 115.48C243.207 114.738 241.973 114.016 240.918 113.312ZM238.398 108.578C238.25 108.766 238.098 108.953 237.941 109.141C238.426 109.641 239.355 110.406 240.73 111.438C241.863 110.391 242.711 109.508 243.273 108.789C243.461 108.555 243.555 108.395 243.555 108.309C243.555 108.223 243.453 108.18 243.25 108.18C243.227 108.18 243.195 108.18 243.156 108.18L238.398 108.578ZM237.484 117.332L237.859 120.52L244.281 120.191L244.738 117.156C244.746 117.117 244.75 117.09 244.75 117.074C244.75 116.871 244.617 116.785 244.352 116.816L244.281 116.828L237.484 117.332ZM241.598 104.078L249.062 103.598C249.078 103.598 249.133 103.598 249.227 103.598C250.008 103.598 250.398 103.871 250.398 104.418C250.398 104.902 249.988 105.68 249.168 106.75C248.613 107.477 248.188 107.84 247.891 107.84C247.766 107.84 247.641 107.797 247.516 107.711C247.367 107.609 247.293 107.461 247.293 107.266C247.293 107.125 247.355 106.945 247.48 106.727C247.926 105.953 248.148 105.457 248.148 105.238C248.148 105.059 247.996 104.977 247.691 104.992L233.676 105.883C233.582 107.922 233.176 108.941 232.457 108.941C231.816 108.941 231.496 108.656 231.496 108.086C231.496 107.93 231.562 107.691 231.695 107.371C232.039 106.512 232.27 105.598 232.387 104.629C232.434 104.168 232.637 103.938 232.996 103.938C233.348 103.938 233.559 104.156 233.629 104.594L239.816 104.195V102.016C239.816 101.469 240.113 101.195 240.707 101.195C241.027 101.195 241.273 101.305 241.445 101.523C241.547 101.656 241.598 101.82 241.598 102.016V104.078Z" fill="black"/>
<path d="M65.816 109.404L65.348 109.656C69.02 114.48 73.052 121.284 74.24 126.936C79.496 131.22 82.592 119.016 65.816 109.404ZM61.388 111.24L54.8 109.008C53.144 115.668 49.292 123.696 45.116 128.052L45.404 128.34C51.776 124.596 57.032 117.9 59.876 111.672C60.92 111.816 61.208 111.672 61.388 111.24ZM56.852 95.652L56.636 95.868C58.76 97.704 60.488 100.728 60.776 103.464C65.564 106.992 69.668 97.092 56.852 95.652ZM73.916 101.304L71.144 105.048H45.404L45.692 106.056H77.768C78.308 106.056 78.704 105.876 78.812 105.48C77.012 103.824 73.916 101.304 73.916 101.304ZM104.228 98.676V123.588C104.228 124.128 104.048 124.416 103.4 124.416C102.464 124.416 97.964 124.128 97.964 124.128V124.596C100.052 124.992 100.988 125.46 101.672 126.108C102.32 126.792 102.572 127.836 102.716 129.24C107.936 128.772 108.62 127.044 108.62 124.092V100.404C109.34 100.26 109.844 99.936 110.06 99.648L105.884 96.372L103.868 98.676H104.228ZM88.352 98.676V109.98C88.352 117.144 87.524 123.768 81.548 128.952L81.872 129.276C91.736 124.632 92.636 117 92.636 109.944V98.676H93.32L88.352 96.948V98.316V98.676ZM90.296 98.676V99.684H106.316V98.676H90.296ZM90.296 106.704V107.712H106.316V106.704H90.296ZM90.188 114.984V115.992H106.316V114.984H90.188Z" fill="black"/>
<path d="M80.0067 172.274C80.934 172.025 81.7436 171.415 82.2293 170.291C82.7535 169.157 82.8204 167.938 82.0491 165.059L80.9517 160.964C80.3616 158.761 79.7766 156.578 79.2459 154.443L77.5072 154.909C79.2306 161.032 79.8517 163.35 80.5661 166.016C81.296 168.74 81.3661 170.315 80.847 171.469L80.8781 171.585L81.2258 171.492L81.1999 171.395L80.5579 171.008C79.8876 170.67 79.5422 170.617 79.0206 170.757C78.4797 170.902 78.1116 171.229 78.1459 171.82C78.4133 172.431 79.1181 172.512 80.0067 172.274ZM75.3881 156.119L78.2849 155.57L78.7485 155.446L81.3962 154.509L81.2357 153.91L75.2276 155.52L75.3881 156.119ZM90.1657 166.901C91.7691 166.472 92.815 165.198 93.4379 163.581L93.9595 163.442L93.2991 162.832C92.7173 164.292 91.769 165.312 90.5713 165.633C89.3156 165.97 88.4286 165.441 87.8747 163.374L86.8653 159.607L86.2838 157.05L86.0092 156.875L83.0783 157.992L83.2129 158.494L85.2997 158.246L84.7867 158.031L86.2906 163.799C87.0374 166.663 88.3304 167.393 90.1657 166.901ZM93.9262 165.79L96.8547 164.819L96.7098 164.278L95.2001 164.517L93.4143 157.852L92.8135 155.301L92.5582 155.121L89.6518 156.251L89.7864 156.754L91.3978 156.508L93.2019 163.396L93.2071 163.415L93.9262 165.79ZM98.4785 164.363L103.211 163.095L103.072 162.574L101.006 162.899L100.387 163.065L98.3387 163.842L98.4785 164.363ZM100.063 163.939L101.782 163.478C101.495 162.561 100.896 160.403 100.544 159.089L99.6379 155.708L98.9022 153.504L98.6045 153.397L95.8417 154.986L95.9711 155.469L97.697 155.11C98.0137 156.061 98.2919 157.021 98.6439 158.335L98.9596 159.514C99.3116 160.827 99.8721 162.996 100.063 163.939ZM105.047 162.603L109.78 161.335L109.64 160.814L107.574 161.139L106.936 161.31L104.907 162.082L105.047 162.603ZM106.631 162.179L108.331 161.723C108.044 160.806 107.436 158.692 107.073 157.339L106.483 155.137C105.784 152.529 104.506 151.774 102.825 152.225C101.473 152.587 100.263 153.636 99.3184 155.753L99.1253 155.804L99.4699 156.395C100.447 154.477 101.578 153.677 102.448 153.444C103.568 153.144 104.401 153.625 104.908 155.518L105.509 157.759C105.871 159.111 106.421 161.241 106.631 162.179ZM116.39 159.875C118.128 159.409 119.191 158.275 119.689 156.734L119.308 156.546C118.764 157.685 117.908 158.432 116.556 158.795C114.411 159.369 112.498 158.412 111.66 155.282C110.909 152.481 111.822 150.477 113.522 150.021C115.106 149.597 116.349 150.527 116.789 152.169C117.001 152.961 116.896 153.341 116.22 153.522L110.598 155.028L110.764 155.647L118.665 153.53C118.659 153.2 118.595 152.803 118.465 152.32C117.859 150.06 115.906 148.72 113.395 149.393C110.845 150.076 109.186 152.694 110.061 155.959C110.992 159.437 113.511 160.646 116.39 159.875Z" fill="black" fill-opacity="0.6"/>
<path d="M47.7114 53.4985L56.057 55.7347L56.9912 52.8046L56.3421 52.6307L54.9981 55.2356L55.5333 55.0311L49.305 53.3623L49.3712 53.115L49.0831 53.6341L58.796 44.9563L58.9326 44.4463L51.0816 42.3426L50.1557 45.2418L50.8512 45.4281L52.1292 42.8221L51.5662 43.0688L57.3463 44.6175L57.2924 44.8185L57.5682 44.3457L47.8439 53.0039L47.7114 53.4985ZM57.2697 56.0596L61.0562 57.0742L61.1804 56.6105L59.4682 55.953L59.1591 55.8702L57.394 55.596L57.2697 56.0596ZM60.187 45.2959L62.1197 45.996L62.2588 46.0332L62.4327 45.3841L60.3154 44.8168L60.187 45.2959ZM58.8152 56.4737L59.4334 56.6394L61.036 50.6584L62.34 45.3593L61.8609 45.2309L58.8152 56.4737ZM63.4671 57.7202L63.9771 57.8569L70.8585 48.6191L71.1362 48.2628L71.3371 48.3167L71.4737 47.8067L70.871 47.6452L64.4346 56.2733L64.288 56.4494L64.6126 56.5363L63.2672 45.6077L61.9999 45.2682L61.8633 45.7782L61.956 45.803L63.4671 57.7202ZM66.3417 58.4904L70.9318 59.7204L71.056 59.2567L68.942 58.4915L68.6175 58.4045L66.4659 58.0268L66.3417 58.4904ZM67.8872 58.9046L69.3245 59.2897C69.7336 57.5772 70.2016 55.8308 70.6695 54.0844L70.8973 53.2344C71.3652 51.488 71.8332 49.7416 72.3392 48.0386L71.0101 47.6824L69.2794 53.8942C68.8416 55.4664 68.3932 57.2015 67.8872 58.9046ZM71.4389 48.493L71.6089 48.5386L73.7718 48.9359L73.9002 48.4568L71.6128 47.8439L71.4389 48.493ZM72.3785 60.108L76.1958 61.1309L76.3077 60.7136L74.715 60.1046L74.2359 59.9762L72.4903 59.6907L72.3785 60.108ZM73.6613 60.4517L75.0213 60.8161C75.1891 60.066 75.6375 58.3309 75.9191 57.28L76.5485 54.9309L77.1551 52.7909L77.0069 52.6022L74.3066 52.5412L74.199 52.943L75.5579 53.3734C75.3817 54.1544 75.1973 54.9664 74.9157 56.0173L74.6672 56.9446C74.3857 57.9955 73.8909 59.7182 73.6613 60.4517ZM76.9301 50.4779C77.4246 50.6104 77.933 50.3822 78.0738 49.8567C78.2063 49.3622 77.8884 48.8795 77.3939 48.747C76.8993 48.6144 76.4135 48.8818 76.281 49.3764C76.1402 49.9018 76.4355 50.3454 76.9301 50.4779ZM77.4791 61.4747L81.2655 62.4893L81.3773 62.072L79.8156 61.4713L79.321 61.3388L77.5909 61.0574L77.4791 61.4747ZM78.7464 61.8143L80.1219 62.1828C80.2897 61.4327 80.7381 59.6976 81.0197 58.6467L81.7444 55.9421L82.1165 54.1204L81.9529 53.9274L79.4031 53.9234L79.2995 54.3097L80.6389 54.7514C80.4782 55.5366 80.2866 56.3135 80.005 57.3644L79.7524 58.3071C79.4708 59.3581 78.9915 61.0849 78.7464 61.8143ZM82.7337 62.8827L86.5201 63.8972L86.632 63.48L85.0702 62.8793L84.5602 62.7426L82.8455 62.4654L82.7337 62.8827ZM84.001 63.2222L85.361 63.5867C85.5289 62.8365 85.9535 61.1282 86.2434 60.0464L86.7155 58.2845C87.2745 56.1981 86.6903 55.1637 85.3458 54.8034C84.2639 54.5136 83.0063 54.7563 81.5054 55.8449L81.3508 55.8035L81.3532 56.3508C82.7973 55.4126 83.9012 55.3108 84.5967 55.4972C85.4931 55.7374 85.8777 56.4036 85.4719 57.9182L84.9915 59.711C84.7017 60.7928 84.2307 62.4887 84.001 63.2222ZM91.0042 65.3472C92.2869 65.6909 93.5212 65.2265 94.5992 64.3559L95.0165 64.4677L94.803 63.781C93.8157 64.5601 92.7506 64.8876 91.7924 64.6308C90.7879 64.3616 90.3847 63.6407 90.8278 61.9871L91.6353 58.9734L92.2551 56.9695L92.1348 56.7385L89.6576 56.3398L89.5499 56.7416L91.0951 57.4041L90.8255 57.0502L89.5605 61.6475C88.9322 63.9307 89.5359 64.9538 91.0042 65.3472ZM94.054 66.0816L96.4713 66.5802L96.5873 66.1475L95.4458 65.7091L96.8745 60.3772L97.4788 58.3692L97.374 58.1423L94.9081 57.7632L94.8004 58.165L96.015 58.6395L94.5098 64.1332L94.5057 64.1486L94.054 66.0816ZM101.504 59.9945L104.364 60.7606L104.517 60.1888L101.658 59.4227L101.504 59.9945ZM100.715 67.9491C101.534 68.1686 102.211 68.0519 102.765 67.6537L102.623 67.3176C102.136 67.4685 101.809 67.5134 101.345 67.3892C100.665 67.207 100.402 66.7058 100.659 65.7476L102.245 59.8284L103.019 57.1867L102.153 56.9548L101.009 59.4312L101.361 59.2935L99.4692 58.9356L99.3408 59.4147L100.871 59.8247L99.7486 64.013C99.5953 64.5848 99.4929 64.9052 99.3604 65.3997C98.9919 66.7752 99.4165 67.6013 100.715 67.9491ZM107.425 69.7472C108.816 70.1199 110.006 69.7596 110.968 68.8909L110.778 68.6083C109.946 69.1803 109.054 69.3555 107.972 69.0656C106.257 68.6059 105.315 67.1774 105.985 64.6737C106.586 62.4327 108.02 61.409 109.38 61.7734C110.647 62.1129 111.136 63.2545 110.784 64.5681C110.615 65.2018 110.39 65.4231 109.849 65.2782L105.351 64.0731L105.219 64.5676L111.54 66.2614C111.668 66.0306 111.782 65.7298 111.885 65.3435C112.37 63.5352 111.552 61.8254 109.543 61.2871C107.503 60.7405 105.306 61.8911 104.607 64.503C103.861 67.2849 105.123 69.1302 107.425 69.7472ZM114.61 71.6723C116.696 72.2314 118.056 71.4858 118.416 70.1412C118.706 69.0594 118.294 68.187 116.878 67.2278L116.179 66.7426C115.151 66.0693 114.799 65.5278 115.002 64.7705C115.217 63.9669 115.977 63.5411 117.167 63.86C117.801 64.0298 118.292 64.3602 118.805 64.9781L118.942 64.4681L118.484 64.2625L118.359 66.1505L118.977 66.3161L119.482 64.679C118.833 64.0083 118.211 63.6097 117.3 63.3654C115.43 62.8643 114.129 63.576 113.781 64.8742C113.471 66.0333 114.077 66.9245 115.212 67.6927L115.937 68.2017C117.097 68.9431 117.363 69.4948 117.165 70.2366C116.929 71.1175 116.072 71.5339 114.696 71.1654C113.8 70.9252 113.27 70.5515 112.787 70.0077L112.638 70.5641L113.201 70.7482L113.348 68.717L112.683 68.5389L112.195 70.3626C112.922 70.988 113.605 71.4032 114.61 71.6723Z" fill="black" fill-opacity="0.6"/>
<path d="M104.779 13.4404L104.645 14.0327L119.818 22.7927C120.078 22.9427 120.301 22.9561 120.446 22.7855C120.118 21.834 119.566 20.4299 119.566 20.4299L117.96 21.0504L104.779 13.4404ZM113.801 14.8152L108.421 24.1336C108.241 24.4454 108.067 24.5066 107.634 24.2566C107.166 23.9866 104.668 22.3134 104.668 22.3134L104.518 22.5732C105.512 23.3318 106.038 23.8204 106.282 24.2382C106.511 24.6014 106.462 24.9659 106.339 25.3796C108.396 26.3364 108.991 25.8255 109.531 24.8902L114.581 16.1434C115.037 16.3141 115.273 16.2655 115.475 16.0357L113.801 14.8152ZM120.538 14.3862C119.047 14.8882 116.07 15.5248 113.956 15.5055L114.285 15.6955C116.583 16.0754 119.484 15.9717 121.412 15.7917C121.803 15.9944 122.048 16.0898 122.267 16.0312L121.611 13.9668L120.347 14.2762L120.538 14.3862ZM110.059 8.33624L109.915 8.94586L120.948 15.3159L121.248 14.7962L110.059 8.33624ZM134.719 32.9431L134.892 33.0431L131.222 39.3998L131.378 39.4898C131.742 39.6998 132.436 39.7773 132.524 39.666L135.584 34.366C135.925 34.494 136.283 34.5154 136.474 34.4642L135.733 32.6277L134.719 32.9431ZM126.537 36.5559L129.847 30.8228L135.025 33.8128L135.325 33.2931L130.233 30.3531L129.365 29.1362L125.235 36.2896L125.409 36.3896C125.876 36.6596 126.467 36.6771 126.537 36.5559ZM131.805 24.4709L131.542 24.5268C131.986 25.4764 132.228 26.9783 131.876 27.907C132.545 29.3091 134.727 27.2896 131.805 24.4709ZM132.391 38.2961L126.658 34.9861L126.368 35.4884L132.101 38.7984L132.391 38.2961ZM139.505 26.2144L134.17 23.1344L133.628 23.514L139.205 26.734L139.505 26.2144ZM138.725 25.7644L138.898 25.8644C135.433 28.6671 130.348 30.2346 125.182 29.8618L125.213 30.2489C130.947 31.1576 135.88 29.7333 139.627 27.1626C140.07 27.3953 140.281 27.4706 140.499 27.4121L139.915 25.5043L138.725 25.7644ZM136.971 22.4424L135.355 21.0013C133.419 22.9549 130.455 25.1694 128.158 26.1068L128.311 26.4027C130.946 25.7992 134.054 24.0146 136.18 22.3322C136.631 22.5922 136.809 22.6029 136.971 22.4424ZM130.85 20.5248L129.61 21.0328L126.925 19.4828L126.764 20.0824L130.903 22.4724C131.146 22.6124 131.352 22.6158 131.514 22.4553C131.291 21.6803 130.85 20.5248 130.85 20.5248ZM120.445 31.3068L120.446 32.7853C122.586 32.3583 124.67 31.8292 125.671 31.5757L125.652 31.2878C123.499 31.3378 121.338 31.3604 120.445 31.3068ZM126.47 23.1919L125.638 22.7119L120.968 30.8006C120.798 31.095 120.634 31.139 119.857 31.2447L120.368 33.0405C120.686 32.97 121.305 32.4964 121.252 31.5883L120.589 31.8979L121.642 32.1134L126.622 23.4878L126.47 23.1919ZM127.188 26.7475L125.938 27.2728L121.383 24.6428L121.231 25.2251L127.259 28.7051C127.501 28.8451 127.707 28.8485 127.869 28.688C127.639 27.8857 127.188 26.7475 127.188 26.7475ZM128.623 23.142L127.393 23.6326L124.466 21.9426L124.304 22.5423L128.669 25.0623C128.912 25.2023 129.135 25.2157 129.297 25.0551C129.067 24.2528 128.623 23.142 128.623 23.142ZM129.382 18.7073C129.825 18.94 130.051 18.9088 130.223 18.7309L128.776 17.1567C127.283 18.9039 124.377 21.3369 122.261 22.4017L122.396 22.6876C124.855 22.0287 127.631 20.2599 129.382 18.7073Z" fill="black" fill-opacity="0.35"/>
<path d="M102.456 217.07C103.079 216.71 103.547 216.111 103.681 215.202C103.841 214.279 103.652 213.383 102.535 211.447L100.945 208.693C100.09 207.212 99.2425 205.744 98.4435 204.3L97.2743 204.975C99.7113 209.076 100.611 210.635 101.646 212.428C102.704 214.26 103.06 215.387 102.908 216.324L102.953 216.402L103.187 216.267L103.15 216.202L102.609 216.046C102.058 215.931 101.798 215.96 101.447 216.163C101.083 216.373 100.88 216.681 101.02 217.102C101.332 217.494 101.858 217.415 102.456 217.07ZM95.974 206.263L97.9661 205.304L98.2778 205.124L100.014 203.931L99.7815 203.528L95.7415 205.86L95.974 206.263ZM111.184 209.849C112.236 209.241 112.986 208.531 113.557 207.509L112.383 205.415L111.798 205.753L112.631 208.216L113.163 207.667L112.916 207.238C112.49 208.211 111.87 208.846 111.038 209.326C108.934 210.541 106.486 209.842 104.813 206.945C103.148 204.061 103.751 201.565 105.908 200.32C106.739 199.84 107.49 199.701 108.533 199.826L108.27 199.372L107.493 199.526L109.227 201.539L109.811 201.201L108.578 199.125C107.448 199.119 106.529 199.355 105.476 199.963C102.761 201.53 101.832 204.63 103.587 207.67C105.349 210.723 108.378 211.469 111.184 209.849ZM118.527 205.575C120.241 204.585 121.084 202.504 119.734 200.166C118.384 197.828 116.115 197.527 114.439 198.495C112.763 199.462 111.902 201.57 113.252 203.909C114.602 206.247 116.799 206.572 118.527 205.575ZM118.294 205.172C117.008 205.914 115.586 205.281 114.416 203.254C113.246 201.228 113.393 199.653 114.679 198.91C115.965 198.168 117.403 198.828 118.573 200.854C119.743 202.881 119.58 204.429 118.294 205.172ZM125.901 201.317C126.797 200.8 127.344 199.947 127.447 198.745L127.563 198.677L127.198 198.403C127.007 199.483 126.626 200.084 125.925 200.489C124.73 201.179 123.329 200.793 122.189 198.818C120.959 196.688 121.431 195.255 122.613 194.572C123.249 194.205 123.952 194.163 124.953 194.486L124.927 194.05L124.797 194.125C123.665 193.636 122.749 193.697 121.995 194.132C120.293 195.115 119.763 197.257 121.061 199.504C122.253 201.57 124.238 202.277 125.901 201.317ZM128.007 200.015L130.14 198.61L129.937 198.259L128.677 198.866L124.102 190.941L123.001 188.944L122.738 188.94L120.911 190.515L121.114 190.865L122.32 190.255L124.593 194.192L124.642 194.336L127.207 198.779L128.007 200.015ZM134.538 196.33C135.707 195.655 136.257 194.628 136.319 193.414L136.006 193.353C135.833 194.284 135.358 194.991 134.449 195.516C133.007 196.348 131.435 196.026 130.22 193.922C129.133 192.038 129.405 190.409 130.548 189.749C131.613 189.134 132.694 189.566 133.331 190.67C133.639 191.203 133.637 191.499 133.182 191.761L129.402 193.944L129.642 194.359L134.955 191.292C134.887 191.054 134.763 190.779 134.575 190.455C133.698 188.935 132.022 188.343 130.334 189.318C128.619 190.308 127.926 192.527 129.193 194.722C130.543 197.061 132.603 197.448 134.538 196.33ZM138.126 193.999L141.556 192.019L141.353 191.668L139.795 192.36L139.263 192.667L137.924 193.648L138.126 193.999ZM139.191 193.384L140.348 192.716C139.962 192.108 139.109 190.66 138.599 189.777L137.474 187.829L136.325 186.049L136.089 186.03L134.396 187.718L134.583 188.042L135.764 187.447C136.178 188.074 136.566 188.716 137.076 189.6L137.533 190.392C138.043 191.275 138.87 192.738 139.191 193.384ZM137.911 188.615C137.63 187.08 137.858 186.065 138.618 185.28L138.013 185.612L138.476 185.725C138.955 185.865 139.286 185.899 139.611 185.711C140.079 185.441 140.129 185.048 139.867 184.594C139.532 184.284 138.997 184.317 138.49 184.609C137.581 185.134 137.136 186.464 137.469 187.97L137.235 188.105L137.911 188.615Z" fill="black" fill-opacity="0.35"/>
<circle cx="139" cy="111" r="14" fill="black"/>
<path d="M133.834 107.494V108.432H137.11V115.698H133.834V116.65H138.09V107.494H133.834ZM133.204 107.494V117.77H134.184V107.494H133.204ZM133.764 111.386V112.324H137.628V111.386H133.764ZM135.346 105.212C135.234 105.94 134.968 107.004 134.73 107.676L135.57 107.886C135.85 107.256 136.2 106.29 136.48 105.422L135.346 105.212ZM140.078 107.452V108.432H144.376V107.452H140.078ZM144.012 107.452V107.676C143.816 113.85 143.592 116.174 143.13 116.678C142.976 116.86 142.808 116.902 142.528 116.902C142.206 116.902 141.366 116.888 140.456 116.818C140.652 117.098 140.778 117.532 140.806 117.84C141.59 117.882 142.416 117.91 142.892 117.854C143.382 117.812 143.704 117.686 144.012 117.28C144.572 116.594 144.768 114.424 144.992 107.998C144.992 107.844 144.992 107.452 144.992 107.452H144.012ZM140.372 105.184C139.924 107.13 139.154 109.062 138.202 110.294C138.454 110.434 138.888 110.728 139.07 110.896C140.036 109.566 140.862 107.508 141.38 105.422L140.372 105.184ZM139.728 111.092C140.498 112.114 141.436 113.5 141.856 114.354L142.752 113.794C142.304 112.968 141.338 111.61 140.54 110.616L139.728 111.092Z" fill="white"/>
<defs>
<clipPath id="clip0_121_3">
<rect width="62" height="62" fill="white" transform="translate(6 79)"/>
</clipPath>
</defs>
</svg>
