<svg width="40" height="40" viewBox="0 0 40 40" fill="none" xmlns="http://www.w3.org/2000/svg">
<g clip-path="url(#clip0_122_56)">
<path d="M1.73897 34.6929C1.26581 35.166 1 35.8078 1 36.4769C1.00002 37.146 1.26585 37.7878 1.73902 38.261C2.21216 38.7341 2.85385 39 3.52297 39L1.73897 34.6929ZM1.73897 34.6929C2.21212 34.2197 2.85385 33.9539 3.52299 33.9539M1.73897 34.6929L3.52299 33.9539M3.52299 33.9539C3.85434 33.9539 4.18244 34.0192 4.48855 34.146M3.52299 33.9539L4.48855 34.146M4.48855 34.146C4.79467 34.2727 5.07282 34.4586 5.3071 34.6929M4.48855 34.146L5.3071 34.6929M5.3071 34.6929C5.54139 34.9272 5.72724 35.2053 5.85404 35.5114M5.3071 34.6929L5.85404 35.5114M5.85404 35.5114C5.98084 35.8175 6.0461 36.1456 6.0461 36.4769M5.85404 35.5114L6.0461 36.4769M6.0461 36.4769C6.04609 37.146 5.78024 37.7878 5.30705 38.261M6.0461 36.4769L5.30705 38.261M5.30705 38.261C4.8339 38.7341 4.19218 39 3.52304 39L5.30705 38.261ZM13.5323 33.9538H14.3349L14.5086 33.1703L20.2522 7.26244L20.5219 6.046H19.2759H3.52299C2.85385 6.046 2.21212 5.78019 1.73897 5.30703C1.26581 4.83388 1 4.19214 1 3.523C1 2.85386 1.26581 2.21212 1.73897 1.73897C2.21212 1.26581 2.85385 1 3.52299 1H26.6124C27.2816 1 27.9233 1.26581 28.3965 1.73897C28.8696 2.21212 29.1354 2.85386 29.1354 3.523V3.52305C29.1354 3.85441 29.0702 4.1825 28.9434 4.48859C28.8166 4.79467 28.6308 5.07283 28.3965 5.30715C28.1622 5.54146 27.8841 5.72731 27.578 5.8541C27.2718 5.9809 26.9438 6.04617 26.6124 6.04617H26.4931H25.6905L25.5168 6.82973L19.7731 32.7376L19.5035 33.954H20.7494H36.4769C36.8083 33.954 37.1363 34.0192 37.4425 34.146C37.7485 34.2728 38.0267 34.4586 38.261 34.6929C38.4953 34.9272 38.6812 35.2054 38.8079 35.5114C38.9347 35.8175 39 36.1456 39 36.4769C39 37.1461 38.7342 37.7878 38.261 38.261C37.7878 38.7342 37.1461 39 36.4769 39H13.3876C12.7184 39 12.0766 38.7342 11.6034 38.261C11.1302 37.7878 10.8644 37.146 10.8644 36.4768C10.8644 36.1455 10.9297 35.8174 11.0565 35.5113C11.1833 35.2052 11.3691 34.927 11.6034 34.6928C11.8377 34.4585 12.1159 34.2726 12.422 34.1459C12.7281 34.0191 13.0562 33.9538 13.3875 33.9538H13.5323ZM33.8455 3.523C33.8455 2.85386 34.1113 2.21214 34.5844 1.73899C35.0576 1.26584 35.6993 1.00002 36.3684 1C36.6998 0.999977 37.0279 1.06522 37.334 1.192C37.6402 1.31878 37.9183 1.50462 38.1526 1.73891C38.3869 1.97319 38.5728 2.25133 38.6996 2.55745C38.8264 2.86361 38.8917 3.19171 38.8917 3.523C38.8917 3.85432 38.8264 4.18242 38.6996 4.48858C38.5728 4.79474 38.387 5.07288 38.1527 5.30715C37.9184 5.54145 37.6403 5.7273 37.3341 5.8541C37.028 5.9809 36.6999 6.04617 36.3686 6.04617C36.0372 6.04618 35.7092 5.98092 35.403 5.85412C35.0969 5.72731 34.8187 5.54145 34.5844 5.30718C34.3502 5.07291 34.1643 4.79476 34.0375 4.48861C33.9107 4.18247 33.8455 3.85437 33.8455 3.523Z" fill="white" stroke="white" stroke-width="2"/>
</g>
<defs>
<clipPath id="clip0_122_56">
<rect width="40" height="40" fill="white"/>
</clipPath>
</defs>
</svg>
